<mxfile host="app.diagrams.net" modified="2024-06-04T11:49:30.515Z" agent="Mozilla/5.0 (Windows NT 10.0; Win64; x64) AppleWebKit/537.36 (KHTML, like Gecko) Chrome/121.0.0.0 Safari/537.36" etag="tanvoXkM5WipFgwNZqDG" version="24.4.13" type="device">
  <diagram name="Página-1" id="jJy1RU-EPVTx5mREoZYD">
    <mxGraphModel dx="3270" dy="2234" grid="1" gridSize="10" guides="1" tooltips="1" connect="1" arrows="1" fold="1" page="1" pageScale="1" pageWidth="827" pageHeight="1169" math="0" shadow="0">
      <root>
        <mxCell id="0" />
        <mxCell id="1" parent="0" />
        <mxCell id="5h7GHQeP1VMgSDRrRVBX-47" value="" style="rounded=0;whiteSpace=wrap;html=1;fillColor=#1ba1e2;fontColor=#ffffff;strokeColor=#006EAF;" parent="1" vertex="1">
          <mxGeometry x="888.48" y="1040" width="250" height="390" as="geometry" />
        </mxCell>
        <mxCell id="5h7GHQeP1VMgSDRrRVBX-48" value="" style="endArrow=none;html=1;rounded=0;" parent="1" edge="1">
          <mxGeometry width="50" height="50" relative="1" as="geometry">
            <mxPoint x="982.48" y="1430" as="sourcePoint" />
            <mxPoint x="982.48" y="1040" as="targetPoint" />
          </mxGeometry>
        </mxCell>
        <mxCell id="5h7GHQeP1VMgSDRrRVBX-49" value="Adicionar&lt;div&gt;&quot;Dividadas&quot;&lt;/div&gt;" style="rounded=0;whiteSpace=wrap;html=1;" parent="1" vertex="1">
          <mxGeometry x="893.48" y="1190" width="80" height="30" as="geometry" />
        </mxCell>
        <mxCell id="5h7GHQeP1VMgSDRrRVBX-50" value="Voltar" style="rounded=0;whiteSpace=wrap;html=1;fillColor=#b0e3e6;strokeColor=#0e8088;" parent="1" vertex="1">
          <mxGeometry x="893.48" y="1350" width="80" height="30" as="geometry" />
        </mxCell>
        <mxCell id="5h7GHQeP1VMgSDRrRVBX-51" value="" style="rounded=0;whiteSpace=wrap;html=1;" parent="1" vertex="1">
          <mxGeometry x="997.48" y="1150" width="120" height="150" as="geometry" />
        </mxCell>
        <mxCell id="5h7GHQeP1VMgSDRrRVBX-52" value="Data:" style="rounded=0;whiteSpace=wrap;html=1;" parent="1" vertex="1">
          <mxGeometry x="1009.98" y="1250" width="30" height="20" as="geometry" />
        </mxCell>
        <mxCell id="5h7GHQeP1VMgSDRrRVBX-53" value="Nome:" style="rounded=0;whiteSpace=wrap;html=1;" parent="1" vertex="1">
          <mxGeometry x="1004.98" y="1190" width="40" height="20" as="geometry" />
        </mxCell>
        <mxCell id="5h7GHQeP1VMgSDRrRVBX-54" value="Valor:" style="rounded=0;whiteSpace=wrap;html=1;" parent="1" vertex="1">
          <mxGeometry x="1009.98" y="1220" width="30" height="20" as="geometry" />
        </mxCell>
        <mxCell id="5h7GHQeP1VMgSDRrRVBX-55" value="" style="rounded=1;whiteSpace=wrap;html=1;" parent="1" vertex="1">
          <mxGeometry x="1049.98" y="1190" width="60" height="20" as="geometry" />
        </mxCell>
        <mxCell id="5h7GHQeP1VMgSDRrRVBX-56" value="" style="rounded=1;whiteSpace=wrap;html=1;" parent="1" vertex="1">
          <mxGeometry x="1049.98" y="1220" width="60" height="20" as="geometry" />
        </mxCell>
        <mxCell id="5h7GHQeP1VMgSDRrRVBX-57" value="" style="rounded=1;whiteSpace=wrap;html=1;" parent="1" vertex="1">
          <mxGeometry x="1049.98" y="1250" width="60" height="20" as="geometry" />
        </mxCell>
        <mxCell id="5h7GHQeP1VMgSDRrRVBX-22" value="" style="rounded=0;whiteSpace=wrap;html=1;fillColor=#1ba1e2;fontColor=#ffffff;strokeColor=#006EAF;" parent="1" vertex="1">
          <mxGeometry x="1370" y="576" width="250" height="390" as="geometry" />
        </mxCell>
        <mxCell id="5h7GHQeP1VMgSDRrRVBX-23" value="" style="endArrow=none;html=1;rounded=0;" parent="1" edge="1">
          <mxGeometry width="50" height="50" relative="1" as="geometry">
            <mxPoint x="1464" y="966" as="sourcePoint" />
            <mxPoint x="1464" y="576" as="targetPoint" />
          </mxGeometry>
        </mxCell>
        <mxCell id="5h7GHQeP1VMgSDRrRVBX-25" value="Dividas" style="rounded=0;whiteSpace=wrap;html=1;" parent="1" vertex="1">
          <mxGeometry x="1375" y="726" width="80" height="30" as="geometry" />
        </mxCell>
        <mxCell id="5h7GHQeP1VMgSDRrRVBX-26" value="Voltar" style="rounded=0;whiteSpace=wrap;html=1;fillColor=#b0e3e6;strokeColor=#0e8088;" parent="1" vertex="1">
          <mxGeometry x="1375" y="886" width="80" height="30" as="geometry" />
        </mxCell>
        <mxCell id="5h7GHQeP1VMgSDRrRVBX-27" value="" style="rounded=0;whiteSpace=wrap;html=1;" parent="1" vertex="1">
          <mxGeometry x="1485" y="586" width="120" height="150" as="geometry" />
        </mxCell>
        <mxCell id="5h7GHQeP1VMgSDRrRVBX-28" value="Data:" style="rounded=0;whiteSpace=wrap;html=1;" parent="1" vertex="1">
          <mxGeometry x="1495" y="676" width="30" height="20" as="geometry" />
        </mxCell>
        <mxCell id="5h7GHQeP1VMgSDRrRVBX-29" value="Nome:" style="rounded=0;whiteSpace=wrap;html=1;" parent="1" vertex="1">
          <mxGeometry x="1490" y="616" width="40" height="20" as="geometry" />
        </mxCell>
        <mxCell id="5h7GHQeP1VMgSDRrRVBX-30" value="Valor:" style="rounded=0;whiteSpace=wrap;html=1;" parent="1" vertex="1">
          <mxGeometry x="1495" y="646" width="30" height="20" as="geometry" />
        </mxCell>
        <mxCell id="5h7GHQeP1VMgSDRrRVBX-31" value="xxx" style="rounded=1;whiteSpace=wrap;html=1;" parent="1" vertex="1">
          <mxGeometry x="1535" y="616" width="60" height="20" as="geometry" />
        </mxCell>
        <mxCell id="5h7GHQeP1VMgSDRrRVBX-32" value="xxx" style="rounded=1;whiteSpace=wrap;html=1;" parent="1" vertex="1">
          <mxGeometry x="1535" y="646" width="60" height="20" as="geometry" />
        </mxCell>
        <mxCell id="5h7GHQeP1VMgSDRrRVBX-33" value="xxx" style="rounded=1;whiteSpace=wrap;html=1;" parent="1" vertex="1">
          <mxGeometry x="1535" y="676" width="60" height="20" as="geometry" />
        </mxCell>
        <mxCell id="5h7GHQeP1VMgSDRrRVBX-34" value="🗑️" style="whiteSpace=wrap;html=1;aspect=fixed;fillColor=#b0e3e6;strokeColor=#0e8088;" parent="1" vertex="1">
          <mxGeometry x="1575" y="706" width="20" height="20" as="geometry" />
        </mxCell>
        <mxCell id="5h7GHQeP1VMgSDRrRVBX-35" value="" style="rounded=0;whiteSpace=wrap;html=1;" parent="1" vertex="1">
          <mxGeometry x="1485" y="746" width="120" height="150" as="geometry" />
        </mxCell>
        <mxCell id="5h7GHQeP1VMgSDRrRVBX-36" value="Data:" style="rounded=0;whiteSpace=wrap;html=1;" parent="1" vertex="1">
          <mxGeometry x="1495" y="836" width="30" height="20" as="geometry" />
        </mxCell>
        <mxCell id="5h7GHQeP1VMgSDRrRVBX-37" value="Nome:" style="rounded=0;whiteSpace=wrap;html=1;" parent="1" vertex="1">
          <mxGeometry x="1490" y="776" width="40" height="20" as="geometry" />
        </mxCell>
        <mxCell id="5h7GHQeP1VMgSDRrRVBX-38" value="Valor:" style="rounded=0;whiteSpace=wrap;html=1;" parent="1" vertex="1">
          <mxGeometry x="1495" y="806" width="30" height="20" as="geometry" />
        </mxCell>
        <mxCell id="5h7GHQeP1VMgSDRrRVBX-39" value="xxx" style="rounded=1;whiteSpace=wrap;html=1;" parent="1" vertex="1">
          <mxGeometry x="1535" y="776" width="60" height="20" as="geometry" />
        </mxCell>
        <mxCell id="5h7GHQeP1VMgSDRrRVBX-40" value="xxx" style="rounded=1;whiteSpace=wrap;html=1;" parent="1" vertex="1">
          <mxGeometry x="1535" y="806" width="60" height="20" as="geometry" />
        </mxCell>
        <mxCell id="5h7GHQeP1VMgSDRrRVBX-41" value="xxx" style="rounded=1;whiteSpace=wrap;html=1;" parent="1" vertex="1">
          <mxGeometry x="1535" y="836" width="60" height="20" as="geometry" />
        </mxCell>
        <mxCell id="5h7GHQeP1VMgSDRrRVBX-42" value="🗑️" style="whiteSpace=wrap;html=1;aspect=fixed;fillColor=#b0e3e6;strokeColor=#0e8088;" parent="1" vertex="1">
          <mxGeometry x="1575" y="866" width="20" height="20" as="geometry" />
        </mxCell>
        <mxCell id="5h7GHQeP1VMgSDRrRVBX-44" value="✔️" style="rounded=0;whiteSpace=wrap;html=1;fillColor=#b0e3e6;strokeColor=#0e8088;" parent="1" vertex="1">
          <mxGeometry x="1091.48" y="1280" width="20" height="20" as="geometry" />
        </mxCell>
        <mxCell id="5h7GHQeP1VMgSDRrRVBX-46" value="➕" style="rounded=0;whiteSpace=wrap;html=1;fillColor=#b0e3e6;strokeColor=#0e8088;" parent="1" vertex="1">
          <mxGeometry x="1570" y="916" width="35" height="30" as="geometry" />
        </mxCell>
        <mxCell id="5h7GHQeP1VMgSDRrRVBX-68" value="Adicionar" style="rounded=0;whiteSpace=wrap;html=1;" parent="1" vertex="1">
          <mxGeometry x="1026.48" y="1160" width="65" height="20" as="geometry" />
        </mxCell>
        <mxCell id="5h7GHQeP1VMgSDRrRVBX-149" value="" style="rounded=0;whiteSpace=wrap;html=1;fillColor=#1ba1e2;fontColor=#ffffff;strokeColor=#006EAF;" parent="1" vertex="1">
          <mxGeometry x="1356.5" y="149" width="250" height="390" as="geometry" />
        </mxCell>
        <mxCell id="5h7GHQeP1VMgSDRrRVBX-150" value="Email" style="rounded=0;whiteSpace=wrap;html=1;" parent="1" vertex="1">
          <mxGeometry x="1382.5" y="249" width="50" height="40" as="geometry" />
        </mxCell>
        <mxCell id="5h7GHQeP1VMgSDRrRVBX-151" value="" style="rounded=1;whiteSpace=wrap;html=1;" parent="1" vertex="1">
          <mxGeometry x="1442.5" y="249" width="140" height="40" as="geometry" />
        </mxCell>
        <mxCell id="5h7GHQeP1VMgSDRrRVBX-152" value="Senha" style="rounded=0;whiteSpace=wrap;html=1;" parent="1" vertex="1">
          <mxGeometry x="1382.5" y="349" width="50" height="40" as="geometry" />
        </mxCell>
        <mxCell id="5h7GHQeP1VMgSDRrRVBX-153" value="" style="rounded=1;whiteSpace=wrap;html=1;" parent="1" vertex="1">
          <mxGeometry x="1442.5" y="349" width="140" height="40" as="geometry" />
        </mxCell>
        <mxCell id="5h7GHQeP1VMgSDRrRVBX-154" value="Login" style="rounded=0;whiteSpace=wrap;html=1;" parent="1" vertex="1">
          <mxGeometry x="1417.5" y="169" width="140" height="40" as="geometry" />
        </mxCell>
        <mxCell id="5h7GHQeP1VMgSDRrRVBX-155" value="Comfirmar" style="rounded=0;whiteSpace=wrap;html=1;fillColor=#b0e3e6;strokeColor=#0e8088;" parent="1" vertex="1">
          <mxGeometry x="1432.5" y="439" width="100" height="45" as="geometry" />
        </mxCell>
        <mxCell id="5h7GHQeP1VMgSDRrRVBX-159" value="" style="ellipse;whiteSpace=wrap;html=1;aspect=fixed;" parent="1" vertex="1">
          <mxGeometry x="992" y="711" width="160" height="160" as="geometry" />
        </mxCell>
        <mxCell id="5h7GHQeP1VMgSDRrRVBX-160" value="" style="rounded=0;whiteSpace=wrap;html=1;fillColor=#1ba1e2;fontColor=#ffffff;strokeColor=#006EAF;" parent="1" vertex="1">
          <mxGeometry x="902" y="586" width="250" height="390" as="geometry" />
        </mxCell>
        <mxCell id="5h7GHQeP1VMgSDRrRVBX-161" value="" style="endArrow=none;html=1;rounded=0;" parent="1" edge="1">
          <mxGeometry width="50" height="50" relative="1" as="geometry">
            <mxPoint x="992" y="976" as="sourcePoint" />
            <mxPoint x="992" y="586" as="targetPoint" />
          </mxGeometry>
        </mxCell>
        <mxCell id="5h7GHQeP1VMgSDRrRVBX-162" value="Dividas" style="rounded=0;whiteSpace=wrap;html=1;fillColor=#b0e3e6;strokeColor=#0e8088;" parent="1" vertex="1">
          <mxGeometry x="907" y="671" width="80" height="30" as="geometry" />
        </mxCell>
        <mxCell id="5h7GHQeP1VMgSDRrRVBX-163" value="Receber" style="rounded=0;whiteSpace=wrap;html=1;fillColor=#b0e3e6;strokeColor=#0e8088;" parent="1" vertex="1">
          <mxGeometry x="907" y="751" width="80" height="30" as="geometry" />
        </mxCell>
        <mxCell id="5h7GHQeP1VMgSDRrRVBX-164" value="Devedores" style="rounded=0;whiteSpace=wrap;html=1;fillColor=#b0e3e6;strokeColor=#0e8088;" parent="1" vertex="1">
          <mxGeometry x="907" y="831" width="80" height="30" as="geometry" />
        </mxCell>
        <mxCell id="5h7GHQeP1VMgSDRrRVBX-165" value="" style="shape=image;verticalLabelPosition=bottom;labelBackgroundColor=default;verticalAlign=top;aspect=fixed;imageAspect=0;image=data:image/png,iVBORw0KGgoAAAANSUhEUgAAAKQAAACUCAMAAAAqEXLeAAAAaVBMVEX///8AAAD7+/vw8PDa2tro6Ojs7OysrKwGBgbQ0NCioqLk5OT19fXh4eFCQkJfX1+4uLhZWVmSkpLJycnCwsKBgYGysrJJSUlpaWkTExMtLS0kJCSZmZlPT08zMzM7Ozt3d3caGhqJiYmrj+04AAAFpUlEQVR4nO2a15qrIBRGR7HHgh1bLO//kEeKGmc0UdF4Llg3Y76J+Ac2u+HPj0AgEAgEAoFAIBAIBAKBQCAQCASCE3H0uImhdreMd5i+REHO3VJWsTLJYCqf8G4xK+jSK9HdchaJqDjXd+mFcregBWQPK6vhQ3OSHF9WTWfB/0xpSKbRJtdKPSy6UaDEkW+WNhFgTSH7MDPPNobqrdJGQNrL8e0fLdRLCGRpTmrdP5vAJAYpVV2B/xR1hDzk+dUzwytO/pVZ4F6N0JvmLG/0SFFBP3GyrSmhhQbPKfk3OiUZVoOMzA0c+9e6ygCijG0idFO4tCeJVWeuGJ7SPelX6lvikDkudJW828FOzL72/Q2kNOzRhW9+/C77Od7jG8pGwOgMm/Dzt/v0o6Bh85sqYTrs2jVT/I1J45D/Nc8+Zo7eplmkyNQy0+94TC1gXsWFux5oUwvprtL1SjjkD/HuObHIfde7dTkZI/IB6yrJAlxuluUY6KwDd9vV0Tv3QH1jgf3JoftVcv+1U2mxDdNPSHNshODyvQMN6uqUXDJ2OJ9XHrgGel5Y8z5ohLF/YB+tj+Y0ZDHKU3XNQGStAdmk8dFBVGzP1WUenTifHFeAfezQDw/T4WGuytoAzmSMBF96UnvQJHsc4mRPkzWHlP8eSSdcKT9u+rhENyT7NF0zSN5DtbXEMo8Cr3PoD1z4+eSyL1lTjhzbwV4IXTKV1mTvdr89eYbCYet5SQsGp5DMOfKKJG7iuHtYh0SKhl6DfgNxjYXz0fiCoizCAyf02j4cuRkpCwpng00yY3bELZKklecbJSlQcrYjZY6oSDClaVlOxMbhph4+tVLANRrAFQiXWS8PS3zb8KnmFGmjS5yQ1vbDjsp83lyLGGWBTpapzlwbOiRSBs7Qm4ZD9+Njg2YPziy/iveGXltJgsbzkM5Ejm319kyZCo7cY3pW7ogXthp2VSYVdRy+JPN2WQ9lJ3qc5dZDLHL80fpWkbZpkXTes/6Yn62Pvc34JNuMZiKjbSLVwMe1gtEoi9EFwJypfAan5ESwF5mNia5pfBap6vRsrNLfrCYcOl+SfkKUTGYileLTxjE72hv0ovdVJdCHHqLH3yLSe5HFKFJL34qUIWrJg/3o8zICnfXoso53MonIsUsrozciFYtOjoE2loTAYp1/l3MD4SQon1o4zapIM2ZPfMLtm2Fov9d8nQ0cx56TyHJZ5EMfnLS7s7B26C470k6cwH2merIZuJBggChgkyil+0/pQClxFxXxXCT4sy5KULVMYrFHohOVTdOU/Q4jdT36fMc62GjcFSOT1bB0B3/Xz+JmW9TCbjwarx8/OW+SiYNbuvR0WdHjMb71P+Tt0dgMUGJPPjaOIY4XfJ1LnJh7c5GyDEy9qYtJYYs2+EWGVubSK1lAFuN4i6kHTxbSZHxGLNuao4TQaqrZUySv3O7m7MGDj9AZ9bn8ObadwkcEr3LzwphGppZo7hg/9KVluDqCdrEyKiXY1fbVurVxGh6N7NBgtjxkFrO6JfO4J70O0z+DMTy+4K0sDGlUMVTYYW2x2eBlfXVRGu5sTTOtICYm2cRBqUdjHstOyDaet6vekjy8KtVZp3n9zpbl32roXGabGlCrS+1/yDu5YVVA9dkDBdQd1Kaqey51EJLRuihRr3/vwaSJRfGuUOhxWEIWk6AEFGiVQWBB86L2+W8UFrqbdzExfO6y3gvomF8v13aoxt5o8e98E3DwLCvFYTjM9b0v/I7OZSHjdVhh1ia3v1mXDEml0UUvb01q4fDuUvo/vJD8mIKyizo9NBUzsuJqSEPK/+Td7mFd6YQa2ZQmGdWpXT4+zC6XXnM4FvVSeLs1viI71q9seFdR8T20JPbdHCffWe6iHRn7lwGOGUEII/O0FqlAIBAIBAKBQCAQCAQCgUAgEAgE3+Afnlg+sU5Bzj0AAAAASUVORK5CYII=;" parent="1" vertex="1">
          <mxGeometry x="1005.5099999999998" y="721" width="132.97" height="120" as="geometry" />
        </mxCell>
        <mxCell id="JAeFSskERngnmBWiQKm0-14" value="🗑️" style="whiteSpace=wrap;html=1;aspect=fixed;fillColor=#b0e3e6;strokeColor=#0e8088;" parent="1" vertex="1">
          <mxGeometry x="1079.96" y="1370" width="40" height="40" as="geometry" />
        </mxCell>
        <mxCell id="b9ZxkMi48kO8AsQnuFB3-22" value="" style="rounded=0;whiteSpace=wrap;html=1;fillColor=#1ba1e2;fontColor=#ffffff;strokeColor=#006EAF;" vertex="1" parent="1">
          <mxGeometry x="1790" y="74" width="250" height="390" as="geometry" />
        </mxCell>
        <mxCell id="b9ZxkMi48kO8AsQnuFB3-23" value="" style="endArrow=none;html=1;rounded=0;" edge="1" parent="1">
          <mxGeometry width="50" height="50" relative="1" as="geometry">
            <mxPoint x="1889" y="464" as="sourcePoint" />
            <mxPoint x="1889" y="74" as="targetPoint" />
          </mxGeometry>
        </mxCell>
        <mxCell id="b9ZxkMi48kO8AsQnuFB3-24" value="nome da page" style="rounded=0;whiteSpace=wrap;html=1;" vertex="1" parent="1">
          <mxGeometry x="1800" y="224" width="80" height="30" as="geometry" />
        </mxCell>
        <mxCell id="b9ZxkMi48kO8AsQnuFB3-25" value="Voltar" style="rounded=0;whiteSpace=wrap;html=1;fillColor=#b0e3e6;strokeColor=#0e8088;" vertex="1" parent="1">
          <mxGeometry x="1800" y="384" width="80" height="30" as="geometry" />
        </mxCell>
        <mxCell id="b9ZxkMi48kO8AsQnuFB3-26" value="" style="rounded=0;whiteSpace=wrap;html=1;" vertex="1" parent="1">
          <mxGeometry x="1910" y="84" width="120" height="150" as="geometry" />
        </mxCell>
        <mxCell id="b9ZxkMi48kO8AsQnuFB3-27" value="Data:" style="rounded=0;whiteSpace=wrap;html=1;" vertex="1" parent="1">
          <mxGeometry x="1920" y="174" width="30" height="20" as="geometry" />
        </mxCell>
        <mxCell id="b9ZxkMi48kO8AsQnuFB3-28" value="Nome:" style="rounded=0;whiteSpace=wrap;html=1;" vertex="1" parent="1">
          <mxGeometry x="1915" y="114" width="40" height="20" as="geometry" />
        </mxCell>
        <mxCell id="b9ZxkMi48kO8AsQnuFB3-29" value="Valor:" style="rounded=0;whiteSpace=wrap;html=1;" vertex="1" parent="1">
          <mxGeometry x="1920" y="144" width="30" height="20" as="geometry" />
        </mxCell>
        <mxCell id="b9ZxkMi48kO8AsQnuFB3-30" value="" style="rounded=1;whiteSpace=wrap;html=1;" vertex="1" parent="1">
          <mxGeometry x="1960" y="114" width="60" height="20" as="geometry" />
        </mxCell>
        <mxCell id="b9ZxkMi48kO8AsQnuFB3-31" value="" style="rounded=1;whiteSpace=wrap;html=1;" vertex="1" parent="1">
          <mxGeometry x="1960" y="144" width="60" height="20" as="geometry" />
        </mxCell>
        <mxCell id="b9ZxkMi48kO8AsQnuFB3-32" value="" style="rounded=1;whiteSpace=wrap;html=1;" vertex="1" parent="1">
          <mxGeometry x="1960" y="174" width="60" height="20" as="geometry" />
        </mxCell>
        <mxCell id="b9ZxkMi48kO8AsQnuFB3-33" value="🗑️" style="whiteSpace=wrap;html=1;aspect=fixed;fillColor=#b0e3e6;strokeColor=#0e8088;" vertex="1" parent="1">
          <mxGeometry x="2000" y="204" width="20" height="20" as="geometry" />
        </mxCell>
        <mxCell id="b9ZxkMi48kO8AsQnuFB3-34" value="" style="rounded=0;whiteSpace=wrap;html=1;" vertex="1" parent="1">
          <mxGeometry x="1910" y="244" width="120" height="150" as="geometry" />
        </mxCell>
        <mxCell id="b9ZxkMi48kO8AsQnuFB3-35" value="Data:" style="rounded=0;whiteSpace=wrap;html=1;" vertex="1" parent="1">
          <mxGeometry x="1920" y="334" width="30" height="20" as="geometry" />
        </mxCell>
        <mxCell id="b9ZxkMi48kO8AsQnuFB3-36" value="Nome:" style="rounded=0;whiteSpace=wrap;html=1;" vertex="1" parent="1">
          <mxGeometry x="1915" y="274" width="40" height="20" as="geometry" />
        </mxCell>
        <mxCell id="b9ZxkMi48kO8AsQnuFB3-37" value="Valor:" style="rounded=0;whiteSpace=wrap;html=1;" vertex="1" parent="1">
          <mxGeometry x="1920" y="304" width="30" height="20" as="geometry" />
        </mxCell>
        <mxCell id="b9ZxkMi48kO8AsQnuFB3-38" value="" style="rounded=1;whiteSpace=wrap;html=1;" vertex="1" parent="1">
          <mxGeometry x="1960" y="274" width="60" height="20" as="geometry" />
        </mxCell>
        <mxCell id="b9ZxkMi48kO8AsQnuFB3-39" value="" style="rounded=1;whiteSpace=wrap;html=1;" vertex="1" parent="1">
          <mxGeometry x="1960" y="304" width="60" height="20" as="geometry" />
        </mxCell>
        <mxCell id="b9ZxkMi48kO8AsQnuFB3-40" value="" style="rounded=1;whiteSpace=wrap;html=1;" vertex="1" parent="1">
          <mxGeometry x="1960" y="334" width="60" height="20" as="geometry" />
        </mxCell>
        <mxCell id="b9ZxkMi48kO8AsQnuFB3-41" value="🗑️" style="whiteSpace=wrap;html=1;aspect=fixed;fillColor=#b0e3e6;strokeColor=#0e8088;" vertex="1" parent="1">
          <mxGeometry x="2000" y="364" width="20" height="20" as="geometry" />
        </mxCell>
        <mxCell id="b9ZxkMi48kO8AsQnuFB3-42" value="➕" style="rounded=0;whiteSpace=wrap;html=1;fillColor=#b0e3e6;strokeColor=#0e8088;" vertex="1" parent="1">
          <mxGeometry x="1995" y="414" width="35" height="30" as="geometry" />
        </mxCell>
        <mxCell id="b9ZxkMi48kO8AsQnuFB3-44" value="Pode ser usada está mesma pagina para todos os outros só mudar os valores." style="shape=display;whiteSpace=wrap;html=1;rotation=0;" vertex="1" parent="1">
          <mxGeometry x="2046.5" y="164" width="247.5" height="121" as="geometry" />
        </mxCell>
        <mxCell id="b9ZxkMi48kO8AsQnuFB3-46" value="" style="rounded=0;whiteSpace=wrap;html=1;fillColor=#1ba1e2;fontColor=#ffffff;strokeColor=#006EAF;" vertex="1" parent="1">
          <mxGeometry x="2417.5" y="70" width="250" height="390" as="geometry" />
        </mxCell>
        <mxCell id="b9ZxkMi48kO8AsQnuFB3-47" value="" style="endArrow=none;html=1;rounded=0;" edge="1" parent="1">
          <mxGeometry width="50" height="50" relative="1" as="geometry">
            <mxPoint x="2511.5" y="461" as="sourcePoint" />
            <mxPoint x="2511.5" y="71" as="targetPoint" />
          </mxGeometry>
        </mxCell>
        <mxCell id="b9ZxkMi48kO8AsQnuFB3-48" value="Nome da page" style="rounded=0;whiteSpace=wrap;html=1;" vertex="1" parent="1">
          <mxGeometry x="2422.5" y="221" width="80" height="30" as="geometry" />
        </mxCell>
        <mxCell id="b9ZxkMi48kO8AsQnuFB3-49" value="Voltar" style="rounded=0;whiteSpace=wrap;html=1;fillColor=#b0e3e6;strokeColor=#0e8088;" vertex="1" parent="1">
          <mxGeometry x="2422.5" y="381" width="80" height="30" as="geometry" />
        </mxCell>
        <mxCell id="b9ZxkMi48kO8AsQnuFB3-50" value="" style="rounded=0;whiteSpace=wrap;html=1;" vertex="1" parent="1">
          <mxGeometry x="2526.5" y="181" width="120" height="150" as="geometry" />
        </mxCell>
        <mxCell id="b9ZxkMi48kO8AsQnuFB3-51" value="Data:" style="rounded=0;whiteSpace=wrap;html=1;" vertex="1" parent="1">
          <mxGeometry x="2539" y="281" width="30" height="20" as="geometry" />
        </mxCell>
        <mxCell id="b9ZxkMi48kO8AsQnuFB3-52" value="Nome:" style="rounded=0;whiteSpace=wrap;html=1;" vertex="1" parent="1">
          <mxGeometry x="2534" y="221" width="40" height="20" as="geometry" />
        </mxCell>
        <mxCell id="b9ZxkMi48kO8AsQnuFB3-53" value="Valor:" style="rounded=0;whiteSpace=wrap;html=1;" vertex="1" parent="1">
          <mxGeometry x="2539" y="251" width="30" height="20" as="geometry" />
        </mxCell>
        <mxCell id="b9ZxkMi48kO8AsQnuFB3-54" value="" style="rounded=1;whiteSpace=wrap;html=1;" vertex="1" parent="1">
          <mxGeometry x="2579" y="221" width="60" height="20" as="geometry" />
        </mxCell>
        <mxCell id="b9ZxkMi48kO8AsQnuFB3-55" value="" style="rounded=1;whiteSpace=wrap;html=1;" vertex="1" parent="1">
          <mxGeometry x="2579" y="251" width="60" height="20" as="geometry" />
        </mxCell>
        <mxCell id="b9ZxkMi48kO8AsQnuFB3-56" value="" style="rounded=1;whiteSpace=wrap;html=1;" vertex="1" parent="1">
          <mxGeometry x="2579" y="281" width="60" height="20" as="geometry" />
        </mxCell>
        <mxCell id="b9ZxkMi48kO8AsQnuFB3-57" value="➕" style="rounded=0;whiteSpace=wrap;html=1;fillColor=#b0e3e6;strokeColor=#0e8088;" vertex="1" parent="1">
          <mxGeometry x="2617.5" y="411" width="35" height="30" as="geometry" />
        </mxCell>
        <mxCell id="b9ZxkMi48kO8AsQnuFB3-58" value="✔️" style="rounded=0;whiteSpace=wrap;html=1;fillColor=#b0e3e6;strokeColor=#0e8088;" vertex="1" parent="1">
          <mxGeometry x="2620.5" y="311" width="20" height="20" as="geometry" />
        </mxCell>
        <mxCell id="b9ZxkMi48kO8AsQnuFB3-59" value="Adicionar" style="rounded=0;whiteSpace=wrap;html=1;" vertex="1" parent="1">
          <mxGeometry x="2555.5" y="191" width="65" height="20" as="geometry" />
        </mxCell>
        <mxCell id="b9ZxkMi48kO8AsQnuFB3-60" value="🗑️" style="whiteSpace=wrap;html=1;aspect=fixed;fillColor=#b0e3e6;strokeColor=#0e8088;" vertex="1" parent="1">
          <mxGeometry x="2615" y="401" width="40" height="40" as="geometry" />
        </mxCell>
        <mxCell id="b9ZxkMi48kO8AsQnuFB3-62" value="" style="rounded=0;whiteSpace=wrap;html=1;fillColor=#1ba1e2;fontColor=#ffffff;strokeColor=#006EAF;" vertex="1" parent="1">
          <mxGeometry x="2463" y="585" width="250" height="390" as="geometry" />
        </mxCell>
        <mxCell id="b9ZxkMi48kO8AsQnuFB3-63" value="" style="endArrow=none;html=1;rounded=0;" edge="1" parent="1">
          <mxGeometry width="50" height="50" relative="1" as="geometry">
            <mxPoint x="2557" y="976" as="sourcePoint" />
            <mxPoint x="2557" y="586" as="targetPoint" />
          </mxGeometry>
        </mxCell>
        <mxCell id="b9ZxkMi48kO8AsQnuFB3-64" value="Nome da page" style="rounded=0;whiteSpace=wrap;html=1;" vertex="1" parent="1">
          <mxGeometry x="2468" y="736" width="80" height="30" as="geometry" />
        </mxCell>
        <mxCell id="b9ZxkMi48kO8AsQnuFB3-65" value="Voltar" style="rounded=0;whiteSpace=wrap;html=1;fillColor=#b0e3e6;strokeColor=#0e8088;" vertex="1" parent="1">
          <mxGeometry x="2468" y="896" width="80" height="30" as="geometry" />
        </mxCell>
        <mxCell id="b9ZxkMi48kO8AsQnuFB3-66" value="" style="rounded=0;whiteSpace=wrap;html=1;" vertex="1" parent="1">
          <mxGeometry x="2572" y="696" width="120" height="150" as="geometry" />
        </mxCell>
        <mxCell id="b9ZxkMi48kO8AsQnuFB3-67" value="Data:" style="rounded=0;whiteSpace=wrap;html=1;" vertex="1" parent="1">
          <mxGeometry x="2584.5" y="796" width="30" height="20" as="geometry" />
        </mxCell>
        <mxCell id="b9ZxkMi48kO8AsQnuFB3-68" value="Nome:" style="rounded=0;whiteSpace=wrap;html=1;" vertex="1" parent="1">
          <mxGeometry x="2579.5" y="736" width="40" height="20" as="geometry" />
        </mxCell>
        <mxCell id="b9ZxkMi48kO8AsQnuFB3-69" value="Valor:" style="rounded=0;whiteSpace=wrap;html=1;" vertex="1" parent="1">
          <mxGeometry x="2584.5" y="766" width="30" height="20" as="geometry" />
        </mxCell>
        <mxCell id="b9ZxkMi48kO8AsQnuFB3-70" value="" style="rounded=1;whiteSpace=wrap;html=1;" vertex="1" parent="1">
          <mxGeometry x="2624.5" y="736" width="60" height="20" as="geometry" />
        </mxCell>
        <mxCell id="b9ZxkMi48kO8AsQnuFB3-71" value="" style="rounded=1;whiteSpace=wrap;html=1;" vertex="1" parent="1">
          <mxGeometry x="2624.5" y="766" width="60" height="20" as="geometry" />
        </mxCell>
        <mxCell id="b9ZxkMi48kO8AsQnuFB3-72" value="" style="rounded=1;whiteSpace=wrap;html=1;" vertex="1" parent="1">
          <mxGeometry x="2624.5" y="796" width="60" height="20" as="geometry" />
        </mxCell>
        <mxCell id="b9ZxkMi48kO8AsQnuFB3-73" value="➕" style="rounded=0;whiteSpace=wrap;html=1;fillColor=#b0e3e6;strokeColor=#0e8088;" vertex="1" parent="1">
          <mxGeometry x="2663" y="926" width="35" height="30" as="geometry" />
        </mxCell>
        <mxCell id="b9ZxkMi48kO8AsQnuFB3-74" value="✔️" style="rounded=0;whiteSpace=wrap;html=1;fillColor=#b0e3e6;strokeColor=#0e8088;" vertex="1" parent="1">
          <mxGeometry x="2666" y="826" width="20" height="20" as="geometry" />
        </mxCell>
        <mxCell id="b9ZxkMi48kO8AsQnuFB3-75" value="Adicionar" style="rounded=0;whiteSpace=wrap;html=1;" vertex="1" parent="1">
          <mxGeometry x="2601" y="706" width="65" height="20" as="geometry" />
        </mxCell>
        <mxCell id="b9ZxkMi48kO8AsQnuFB3-76" value="🗑️" style="whiteSpace=wrap;html=1;aspect=fixed;fillColor=#b0e3e6;strokeColor=#0e8088;" vertex="1" parent="1">
          <mxGeometry x="2660.5" y="916" width="40" height="40" as="geometry" />
        </mxCell>
        <mxCell id="b9ZxkMi48kO8AsQnuFB3-61" value="AVISO:&lt;div&gt;dados apagados não se recuperam,&lt;/div&gt;&lt;div&gt;confirmar?&lt;/div&gt;&lt;div&gt;&lt;br&gt;&lt;/div&gt;&lt;div&gt;sim&amp;nbsp; /&amp;nbsp; não&lt;/div&gt;" style="ellipse;shape=cloud;whiteSpace=wrap;html=1;" vertex="1" parent="1">
          <mxGeometry x="2502" y="685" width="190" height="160" as="geometry" />
        </mxCell>
        <mxCell id="b9ZxkMi48kO8AsQnuFB3-77" value="" style="rounded=0;whiteSpace=wrap;html=1;fillColor=#1ba1e2;fontColor=#ffffff;strokeColor=#006EAF;" vertex="1" parent="1">
          <mxGeometry x="1850" y="586" width="250" height="390" as="geometry" />
        </mxCell>
        <mxCell id="b9ZxkMi48kO8AsQnuFB3-78" value="" style="endArrow=none;html=1;rounded=0;" edge="1" parent="1">
          <mxGeometry width="50" height="50" relative="1" as="geometry">
            <mxPoint x="1949" y="976" as="sourcePoint" />
            <mxPoint x="1949" y="586" as="targetPoint" />
          </mxGeometry>
        </mxCell>
        <mxCell id="b9ZxkMi48kO8AsQnuFB3-79" value="nome da page" style="rounded=0;whiteSpace=wrap;html=1;" vertex="1" parent="1">
          <mxGeometry x="1860" y="736" width="80" height="30" as="geometry" />
        </mxCell>
        <mxCell id="b9ZxkMi48kO8AsQnuFB3-80" value="Voltar" style="rounded=0;whiteSpace=wrap;html=1;fillColor=#b0e3e6;strokeColor=#0e8088;" vertex="1" parent="1">
          <mxGeometry x="1860" y="896" width="80" height="30" as="geometry" />
        </mxCell>
        <mxCell id="b9ZxkMi48kO8AsQnuFB3-81" value="" style="rounded=0;whiteSpace=wrap;html=1;" vertex="1" parent="1">
          <mxGeometry x="1970" y="596" width="120" height="150" as="geometry" />
        </mxCell>
        <mxCell id="b9ZxkMi48kO8AsQnuFB3-82" value="Data:" style="rounded=0;whiteSpace=wrap;html=1;" vertex="1" parent="1">
          <mxGeometry x="1980" y="686" width="30" height="20" as="geometry" />
        </mxCell>
        <mxCell id="b9ZxkMi48kO8AsQnuFB3-83" value="Nome:" style="rounded=0;whiteSpace=wrap;html=1;" vertex="1" parent="1">
          <mxGeometry x="1975" y="626" width="40" height="20" as="geometry" />
        </mxCell>
        <mxCell id="b9ZxkMi48kO8AsQnuFB3-84" value="Valor:" style="rounded=0;whiteSpace=wrap;html=1;" vertex="1" parent="1">
          <mxGeometry x="1980" y="656" width="30" height="20" as="geometry" />
        </mxCell>
        <mxCell id="b9ZxkMi48kO8AsQnuFB3-85" value="" style="rounded=1;whiteSpace=wrap;html=1;" vertex="1" parent="1">
          <mxGeometry x="2020" y="626" width="60" height="20" as="geometry" />
        </mxCell>
        <mxCell id="b9ZxkMi48kO8AsQnuFB3-86" value="" style="rounded=1;whiteSpace=wrap;html=1;" vertex="1" parent="1">
          <mxGeometry x="2020" y="656" width="60" height="20" as="geometry" />
        </mxCell>
        <mxCell id="b9ZxkMi48kO8AsQnuFB3-87" value="" style="rounded=1;whiteSpace=wrap;html=1;" vertex="1" parent="1">
          <mxGeometry x="2020" y="686" width="60" height="20" as="geometry" />
        </mxCell>
        <mxCell id="b9ZxkMi48kO8AsQnuFB3-88" value="🗑️" style="whiteSpace=wrap;html=1;aspect=fixed;fillColor=#b0e3e6;strokeColor=#0e8088;" vertex="1" parent="1">
          <mxGeometry x="2060" y="716" width="20" height="20" as="geometry" />
        </mxCell>
        <mxCell id="b9ZxkMi48kO8AsQnuFB3-89" value="" style="rounded=0;whiteSpace=wrap;html=1;" vertex="1" parent="1">
          <mxGeometry x="1970" y="756" width="120" height="150" as="geometry" />
        </mxCell>
        <mxCell id="b9ZxkMi48kO8AsQnuFB3-90" value="Data:" style="rounded=0;whiteSpace=wrap;html=1;" vertex="1" parent="1">
          <mxGeometry x="1980" y="846" width="30" height="20" as="geometry" />
        </mxCell>
        <mxCell id="b9ZxkMi48kO8AsQnuFB3-91" value="Nome:" style="rounded=0;whiteSpace=wrap;html=1;" vertex="1" parent="1">
          <mxGeometry x="1975" y="786" width="40" height="20" as="geometry" />
        </mxCell>
        <mxCell id="b9ZxkMi48kO8AsQnuFB3-92" value="Valor:" style="rounded=0;whiteSpace=wrap;html=1;" vertex="1" parent="1">
          <mxGeometry x="1980" y="816" width="30" height="20" as="geometry" />
        </mxCell>
        <mxCell id="b9ZxkMi48kO8AsQnuFB3-93" value="" style="rounded=1;whiteSpace=wrap;html=1;" vertex="1" parent="1">
          <mxGeometry x="2020" y="786" width="60" height="20" as="geometry" />
        </mxCell>
        <mxCell id="b9ZxkMi48kO8AsQnuFB3-94" value="" style="rounded=1;whiteSpace=wrap;html=1;" vertex="1" parent="1">
          <mxGeometry x="2020" y="816" width="60" height="20" as="geometry" />
        </mxCell>
        <mxCell id="b9ZxkMi48kO8AsQnuFB3-95" value="" style="rounded=1;whiteSpace=wrap;html=1;" vertex="1" parent="1">
          <mxGeometry x="2020" y="846" width="60" height="20" as="geometry" />
        </mxCell>
        <mxCell id="b9ZxkMi48kO8AsQnuFB3-96" value="🗑️" style="whiteSpace=wrap;html=1;aspect=fixed;fillColor=#b0e3e6;strokeColor=#0e8088;" vertex="1" parent="1">
          <mxGeometry x="2060" y="876" width="20" height="20" as="geometry" />
        </mxCell>
        <mxCell id="b9ZxkMi48kO8AsQnuFB3-97" value="➕" style="rounded=0;whiteSpace=wrap;html=1;fillColor=#b0e3e6;strokeColor=#0e8088;" vertex="1" parent="1">
          <mxGeometry x="2055" y="926" width="35" height="30" as="geometry" />
        </mxCell>
        <mxCell id="b9ZxkMi48kO8AsQnuFB3-98" value="AVISO:&lt;div&gt;dados apagados não se recuperam,&lt;/div&gt;&lt;div&gt;confirmar?&lt;/div&gt;&lt;div&gt;&lt;br&gt;&lt;/div&gt;&lt;div&gt;sim&amp;nbsp; /&amp;nbsp; não&lt;/div&gt;" style="ellipse;shape=cloud;whiteSpace=wrap;html=1;" vertex="1" parent="1">
          <mxGeometry x="1870" y="676" width="185" height="190" as="geometry" />
        </mxCell>
        <mxCell id="b9ZxkMi48kO8AsQnuFB3-99" value="Pode ser usada está mesma pagina para todos os outros só mudar os valores." style="shape=display;whiteSpace=wrap;html=1;rotation=0;" vertex="1" parent="1">
          <mxGeometry x="2737.5" y="191" width="247.5" height="121" as="geometry" />
        </mxCell>
        <mxCell id="b9ZxkMi48kO8AsQnuFB3-101" value="AVISO:&amp;nbsp;&lt;div&gt;Dados Invalidos&lt;/div&gt;" style="ellipse;shape=cloud;whiteSpace=wrap;html=1;" vertex="1" parent="1">
          <mxGeometry x="1384" y="219" width="185" height="175" as="geometry" />
        </mxCell>
        <mxCell id="b9ZxkMi48kO8AsQnuFB3-102" value="" style="rounded=0;whiteSpace=wrap;html=1;fillColor=#1ba1e2;fontColor=#ffffff;strokeColor=#006EAF;" vertex="1" parent="1">
          <mxGeometry x="896" y="160" width="250" height="390" as="geometry" />
        </mxCell>
        <mxCell id="b9ZxkMi48kO8AsQnuFB3-103" value="Email" style="rounded=0;whiteSpace=wrap;html=1;" vertex="1" parent="1">
          <mxGeometry x="922" y="260" width="50" height="40" as="geometry" />
        </mxCell>
        <mxCell id="b9ZxkMi48kO8AsQnuFB3-104" value="" style="rounded=1;whiteSpace=wrap;html=1;" vertex="1" parent="1">
          <mxGeometry x="982" y="260" width="140" height="40" as="geometry" />
        </mxCell>
        <mxCell id="b9ZxkMi48kO8AsQnuFB3-105" value="Senha" style="rounded=0;whiteSpace=wrap;html=1;" vertex="1" parent="1">
          <mxGeometry x="922" y="360" width="50" height="40" as="geometry" />
        </mxCell>
        <mxCell id="b9ZxkMi48kO8AsQnuFB3-106" value="" style="rounded=1;whiteSpace=wrap;html=1;" vertex="1" parent="1">
          <mxGeometry x="982" y="360" width="140" height="40" as="geometry" />
        </mxCell>
        <mxCell id="b9ZxkMi48kO8AsQnuFB3-107" value="Login" style="rounded=0;whiteSpace=wrap;html=1;" vertex="1" parent="1">
          <mxGeometry x="957" y="180" width="140" height="40" as="geometry" />
        </mxCell>
        <mxCell id="b9ZxkMi48kO8AsQnuFB3-108" value="Comfirmar" style="rounded=0;whiteSpace=wrap;html=1;fillColor=#b0e3e6;strokeColor=#0e8088;" vertex="1" parent="1">
          <mxGeometry x="972" y="450" width="100" height="45" as="geometry" />
        </mxCell>
        <mxCell id="b9ZxkMi48kO8AsQnuFB3-109" value="&lt;div&gt;&lt;span style=&quot;background-color: initial;&quot;&gt;tentar de novo&lt;/span&gt;&lt;br&gt;&lt;/div&gt;" style="rounded=1;whiteSpace=wrap;html=1;verticalAlign=middle;fillColor=#b0e3e6;strokeColor=#0e8088;" vertex="1" parent="1">
          <mxGeometry x="1437.5" y="334" width="84" height="25" as="geometry" />
        </mxCell>
      </root>
    </mxGraphModel>
  </diagram>
</mxfile>
